<?xml version="1.0"?>
<svg width="640" height="480" xmlns="http://www.w3.org/2000/svg" xmlns:svg="http://www.w3.org/2000/svg">
 <!-- Created with SVG-edit - https://github.com/SVG-Edit/svgedit-->
 <g class="layer">
  <title>Layer 1</title>
  <circle cx="86.5" cy="89.5" fill="#00ff00" id="svg_1" r="81.706795" stroke="#000000" stroke-dasharray="null" stroke-linecap="null" stroke-linejoin="null" stroke-width="5"/>
  <polygon cx="107.5" cy="57.5" fill="#00ff00" id="svg_4" orient="point" point="5" points="107.5,57.5 107.5,57.5 107.5,57.5 107.5,57.5 107.5,57.5 107.5,57.5 107.5,57.5 107.5,57.5 107.5,57.5 107.5,57.5 107.5,57.5 107.5,57.5 " r="0" r2="0" shape="star" stroke="#000000" stroke-width="5" strokeWidth="5" strokecolor="#000000"/>
  <polygon cx="208.5" cy="144.5" edge="54.605657" fill="#000000" id="svg_6" orient="x" points="165.84571838378906,89.5 142.7523193359375,145.6059112548828 86.99999237060547,168.84573364257812 31.247650146484375,145.6059112548828 8.154268264770508,89.5 31.247650146484375,33.39409255981445 86.99999237060547,10.154273986816406 142.7523193359375,33.39409255981445 165.84571838378906,89.5 " shape="regularPoly" sides="8" stroke="#000000" stroke-width="5" strokeWidth="5" strokecolor="#000000"/>
  <polygon cx="120.5" cy="36.5" edge="0" fill="#00ff00" id="svg_7" orient="x" points="120.5,36.5 120.5,36.5 120.5,36.5 120.5,36.5 120.5,36.5 120.5,36.5 120.5,36.5 120.5,36.5 120.5,36.5 " shape="regularPoly" sides="8" stroke="#000000" stroke-width="5" strokeWidth="5" strokecolor="#000000"/>
  <polygon cx="59.5" cy="31.5" edge="0" fill="#00ff00" id="svg_8" orient="x" points="59.5,31.5 59.5,31.5 59.5,31.5 59.5,31.5 59.5,31.5 59.5,31.5 59.5,31.5 59.5,31.5 59.5,31.5 " shape="regularPoly" sides="8" stroke="#000000" stroke-width="5" strokeWidth="5" strokecolor="#000000"/>
  <polygon cx="30.5" cy="122.5" edge="0" fill="#00ff00" id="svg_9" orient="x" points="30.5,122.5 30.5,122.5 30.5,122.5 30.5,122.5 30.5,122.5 30.5,122.5 30.5,122.5 30.5,122.5 30.5,122.5 " shape="regularPoly" sides="8" stroke="#000000" stroke-width="5" strokeWidth="5" strokecolor="#000000"/>
  <text fill="#00ff00" font-family="Serif" font-size="29" font-weight="bold" id="svg_11" stroke="#00ff00" stroke-dasharray="null" stroke-linecap="null" stroke-linejoin="null" stroke-width="0" text-anchor="middle" transform="matrix(3.95798 0 0 2.03167 -252.916 -87.2394)" x="87.005309" xml:space="preserve" y="93.023381">jca</text>
  <polygon cx="85.5" cy="35.5" fill="#000000" id="svg_12" orient="point" point="5" points="85.5,35.5 85.5,35.5 85.5,35.5 85.5,35.5 85.5,35.5 85.5,35.5 85.5,35.5 85.5,35.5 85.5,35.5 85.5,35.5 85.5,35.5 85.5,35.5 " r="0" r2="0" shape="star" stroke="#000000" stroke-width="5" strokeWidth="5" strokecolor="#000000"/>
  <polygon cx="89.5" cy="133.5" fill="#000000" id="svg_13" orient="point" point="5" points="89.5,133.5 89.5,133.5 89.5,133.5 89.5,133.5 89.5,133.5 89.5,133.5 89.5,133.5 89.5,133.5 89.5,133.5 89.5,133.5 89.5,133.5 89.5,133.5 " r="0" r2="0" shape="star" stroke="#000000" stroke-width="5" strokeWidth="5" strokecolor="#000000"/>
  <polygon cx="87.5" cy="37.5" fill="#00ff00" id="svg_16" orient="point" point="5" points="87.5,37.5 87.5,37.5 87.5,37.5 87.5,37.5 87.5,37.5 87.5,37.5 87.5,37.5 87.5,37.5 87.5,37.5 87.5,37.5 87.5,37.5 87.5,37.5 " r="0" r2="0" shape="star" stroke="#000000" stroke-width="5" strokeWidth="5" strokecolor="#000000"/>
 </g>
</svg>